<svg width="19" height="22" viewBox="0 0 19 22" fill="none" xmlns="http://www.w3.org/2000/svg">
<g filter="url(#filter0_d_101_2322)">
<path d="M11.4822 1.28412C12.799 0.598291 14.3832 0.707416 15.6324 1.50983C18.3148 3.23294 18.1808 7.13338 15.8362 9.29385C13.749 11.2172 12.3316 13.3186 11.3436 16.0179C10.0687 19.5011 6.16385 21.6324 2.9124 19.8473C1.19602 18.905 0.097401 17.0738 0.360044 15.1334C1.28144 8.32639 4.75596 4.78738 11.4822 1.28412Z" fill="white"/>
<path d="M15.4927 1.72772C17.9167 3.28501 17.9175 6.79712 15.866 8.90372L15.6608 9.10387C13.676 10.9329 12.2851 12.9242 11.2932 15.4224L11.1003 15.9288C9.90129 19.2046 6.34093 21.1802 3.32687 19.7671L3.03696 19.6203C1.50128 18.7772 0.501783 17.1994 0.585336 15.5082L0.616669 15.1685C1.07186 11.8057 2.15419 9.26648 3.9425 7.13615C5.62338 5.13381 7.94 3.47811 10.9838 1.84101L11.6016 1.51356C12.8314 0.873013 14.3174 0.972708 15.4927 1.72772Z" stroke="black" stroke-width="0.518204"/>
</g>
<defs>
<filter id="filter0_d_101_2322" x="0.321289" y="0.831787" width="17.8161" height="20.6966" filterUnits="userSpaceOnUse" color-interpolation-filters="sRGB">
<feFlood flood-opacity="0" result="BackgroundImageFix"/>
<feColorMatrix in="SourceAlpha" type="matrix" values="0 0 0 0 0 0 0 0 0 0 0 0 0 0 0 0 0 0 127 0" result="hardAlpha"/>
<feOffset dx="0.518204" dy="1.03641"/>
<feComposite in2="hardAlpha" operator="out"/>
<feColorMatrix type="matrix" values="0 0 0 0 0 0 0 0 0 0 0 0 0 0 0 0 0 0 1 0"/>
<feBlend mode="normal" in2="BackgroundImageFix" result="effect1_dropShadow_101_2322"/>
<feBlend mode="normal" in="SourceGraphic" in2="effect1_dropShadow_101_2322" result="shape"/>
</filter>
</defs>
</svg>
